<svg width="64" height="64" viewBox="0 0 64 64" fill="none" xmlns="http://www.w3.org/2000/svg">
<g clip-path="url(#clip0_2_49)">
<path fill-rule="evenodd" clip-rule="evenodd" d="M17.33 1.13824C17.9426 0.784511 18.6376 0.598289 19.3451 0.598289C20.0525 0.598289 20.7475 0.784511 21.3602 1.13824L31.5067 6.99496C32.1194 7.34868 32.6281 7.85743 32.9818 8.47008C33.3356 9.08274 33.5218 9.7777 33.5218 10.4851V22.2018C33.5218 22.9092 33.3356 23.6042 32.9818 24.2169C32.6281 24.8295 32.1194 25.3383 31.5067 25.692L21.3602 31.5503C20.7475 31.9041 20.0525 32.0903 19.3451 32.0903C18.6376 32.0903 17.9426 31.9041 17.33 31.5503L7.18348 25.692C6.57082 25.3383 6.06206 24.8295 5.70834 24.2169C5.35461 23.6042 5.16838 22.9092 5.16837 22.2018V10.4868C5.1681 9.77904 5.3542 9.08374 5.70794 8.47078C6.06168 7.85782 6.57059 7.34882 7.18348 6.99496L17.33 1.13824ZM19.7481 3.93038C19.6256 3.85963 19.4866 3.82239 19.3451 3.82239C19.2036 3.82239 19.0646 3.85963 18.9421 3.93038L8.79557 9.78872C8.67304 9.85946 8.57129 9.96121 8.50054 10.0837C8.4298 10.2063 8.39255 10.3453 8.39255 10.4868V22.2034C8.39255 22.3449 8.4298 22.4839 8.50054 22.6064C8.57129 22.729 8.67304 22.8307 8.79557 22.9015L18.9421 28.7582C19.0646 28.8289 19.2036 28.8662 19.3451 28.8662C19.4866 28.8662 19.6256 28.8289 19.7481 28.7582L29.8946 22.8998C30.0171 22.8291 30.1189 22.7274 30.1896 22.6048C30.2604 22.4823 30.2976 22.3433 30.2976 22.2018V10.4868C30.2976 10.3453 30.2604 10.2063 30.1896 10.0837C30.1189 9.96121 30.0171 9.85946 29.8946 9.78872L19.7481 3.93038Z" fill="#009689"/>
<path fill-rule="evenodd" clip-rule="evenodd" d="M17.4912 31.768C18.1039 31.4142 18.7988 31.228 19.5063 31.228C20.2138 31.228 20.9087 31.4142 21.5214 31.768L31.6679 37.6247C32.2806 37.9784 32.7893 38.4872 33.1431 39.0998C33.4968 39.7125 33.683 40.4074 33.683 41.1149V52.8315C33.683 53.539 33.4968 54.2339 33.1431 54.8466C32.7893 55.4592 32.2806 55.968 31.6679 56.3217L21.5214 62.18C20.9087 62.5338 20.2138 62.72 19.5063 62.72C18.7988 62.72 18.1039 62.5338 17.4912 62.18L7.34469 56.3217C6.73203 55.968 6.22327 55.4592 5.86955 54.8466C5.51582 54.2339 5.32959 53.539 5.32957 52.8315V41.1165C5.32931 40.4088 5.51541 39.7135 5.86915 39.1005C6.22288 38.4875 6.73179 37.9785 7.34469 37.6247L17.4912 31.768ZM19.9093 34.5601C19.7868 34.4894 19.6478 34.4521 19.5063 34.4521C19.3648 34.4521 19.2258 34.4894 19.1033 34.5601L8.95678 40.4184C8.83425 40.4892 8.7325 40.5909 8.66175 40.7135C8.59101 40.836 8.55376 40.975 8.55376 41.1165V52.8331C8.55376 52.9746 8.59101 53.1136 8.66175 53.2362C8.7325 53.3587 8.83425 53.4604 8.95678 53.5312L19.1033 59.3879C19.2258 59.4587 19.3648 59.4959 19.5063 59.4959C19.6478 59.4959 19.7868 59.4587 19.9093 59.3879L30.0558 53.5296C30.1784 53.4588 30.2801 53.3571 30.3508 53.2345C30.4216 53.112 30.4588 52.973 30.4588 52.8315V41.1165C30.4588 40.975 30.4216 40.836 30.3508 40.7135C30.2801 40.5909 30.1784 40.4892 30.0558 40.4184L19.9093 34.5601Z" fill="#009689"/>
<path fill-rule="evenodd" clip-rule="evenodd" d="M42.6398 17.2591C43.2525 16.9054 43.9475 16.7192 44.6549 16.7192C45.3624 16.7192 46.0574 16.9054 46.67 17.2591L56.8165 23.1159C57.4292 23.4696 57.9379 23.9783 58.2917 24.591C58.6454 25.2036 58.8316 25.8986 58.8316 26.606V38.3227C58.8316 39.0302 58.6454 39.7251 58.2917 40.3378C57.9379 40.9504 57.4292 41.4592 56.8165 41.8129L46.67 47.6712C46.0574 48.025 45.3624 48.2112 44.6549 48.2112C43.9475 48.2112 43.2525 48.025 42.6398 47.6712L32.4933 41.8129C31.8806 41.4592 31.3719 40.9504 31.0182 40.3378C30.6644 39.7251 30.4782 39.0302 30.4782 38.3227V26.6077C30.4779 25.8999 30.664 25.2046 31.0178 24.5917C31.3715 23.9787 31.8804 23.4697 32.4933 23.1159L42.6398 17.2591ZM45.0579 20.0513C44.9354 19.9805 44.7964 19.9433 44.6549 19.9433C44.5134 19.9433 44.3744 19.9805 44.2519 20.0513L34.1054 25.9096C33.9829 25.9804 33.8811 26.0821 33.8104 26.2046C33.7396 26.3272 33.7024 26.4662 33.7024 26.6077V38.3243C33.7024 38.4658 33.7396 38.6048 33.8104 38.7273C33.8811 38.8499 33.9829 38.9516 34.1054 39.0224L44.2519 44.8791C44.3744 44.9498 44.5134 44.9871 44.6549 44.9871C44.7964 44.9871 44.9354 44.9498 45.0579 44.8791L55.2044 39.0208C55.327 38.95 55.4287 38.8483 55.4995 38.7257C55.5702 38.6032 55.6075 38.4642 55.6075 38.3227V26.6077C55.6075 26.4662 55.5702 26.3272 55.4995 26.2046C55.4287 26.0821 55.327 25.9804 55.2044 25.9096L45.0579 20.0513Z" fill="#009689"/>
</g>
<defs>
<clipPath id="clip0_2_49">
<rect width="64" height="64" fill="white"/>
</clipPath>
</defs>
</svg>
